<svg width="130" height="36" viewBox="0 0 130 36" fill="none" xmlns="http://www.w3.org/2000/svg">
<g clip-path="url(#clip0_4088_10633)">
<path d="M110.757 5.15215H114.689V13.0637L110.757 16.7781V5.15215ZM110.757 27.1691V25.1246L114.689 21.3949V27.1691H110.757ZM125.549 27.1691L118.42 17.8872L121.097 15.3228L130 27.1691H125.549ZM53.7883 27.1691C52.3715 27.1691 50.9776 26.9005 49.6449 26.3706C48.3231 25.8449 47.1373 25.144 46.1201 24.2872L45.7402 23.9672L47.8685 21.1174L48.2857 21.4568C49.2235 22.2207 50.1441 22.8067 51.0227 23.1981C51.8754 23.5785 52.8469 23.7715 53.9103 23.7715C55.0774 23.7715 55.9768 23.4971 56.5819 22.9557C57.1771 22.4232 57.4667 21.77 57.4667 20.9589C57.4667 20.1709 57.1444 19.5561 56.4822 19.0792C55.7245 18.5341 54.6233 18.0026 53.2081 17.499C51.29 16.7965 49.7627 16.0158 48.6661 15.1769C47.4751 14.2661 46.8711 12.954 46.8711 11.2773C46.8711 9.50558 47.5416 8.02034 48.8639 6.86351C50.1639 5.72663 51.9304 5.14952 54.1142 5.14952C55.2876 5.14952 56.435 5.36987 57.5238 5.80427C58.6011 6.23447 59.5778 6.80108 60.4289 7.4894L60.8202 7.80576L58.7885 10.5638L58.3738 10.2605C57.6219 9.71019 56.9026 9.28629 56.2342 9.00036C55.5958 8.72702 54.8823 8.58852 54.1142 8.58852C53.0015 8.58852 52.1582 8.84139 51.6071 9.34032C51.0658 9.83138 50.8022 10.4111 50.8022 11.1125C50.8022 11.5868 50.9511 11.9834 51.2584 12.3255C51.6024 12.7095 52.0316 13.0207 52.535 13.251C53.0882 13.5044 53.889 13.8401 54.9155 14.2499C56.3042 14.7729 57.4205 15.253 58.2239 15.6727C59.0765 16.1186 59.8207 16.7571 60.4357 17.5714C61.0745 18.4176 61.3978 19.5015 61.3978 20.7942C61.3978 21.9605 61.0901 23.0459 60.4824 24.0197C59.8747 24.9939 58.98 25.7725 57.8232 26.3344C56.6831 26.8884 55.3255 27.1691 53.7883 27.1691ZM69.0069 27.1691C66.8874 27.1691 65.3362 26.5306 64.3954 25.2715C63.4872 24.0585 63.0269 22.3303 63.0269 20.1347V0.000209808H67.04V5.64426H72.46V9.16509H67.04V20.2176C67.04 21.4164 67.246 22.3104 67.6534 22.8749C68.0286 23.3954 68.6846 23.6482 69.6587 23.6482C70.1647 23.6482 70.8715 23.4788 71.76 23.1451L72.2919 22.9452L73.1824 26.2436L72.7164 26.4005C71.1818 26.9178 69.9685 27.1691 69.0069 27.1691ZM82.8356 8.71233C81.7712 8.71233 80.8516 9.00928 80.0244 9.61996C79.1956 10.2333 78.5402 11.1089 78.0773 12.2222C77.604 13.3596 77.3642 14.6911 77.3642 16.18C77.3642 18.4402 77.8899 20.2727 78.9263 21.6263C79.9455 22.9589 81.2243 23.6068 82.8356 23.6068C83.9021 23.6068 84.8233 23.3151 85.6515 22.7159C86.4793 22.1163 87.1409 21.247 87.6168 20.1332C88.1021 18.9952 88.3486 17.6653 88.3486 16.18C88.3486 14.6953 88.1021 13.3653 87.6163 12.2269C87.1399 11.112 86.4772 10.2348 85.6469 9.61996C84.8196 9.00928 83.9 8.71233 82.8356 8.71233ZM82.8356 27.1691C81.1189 27.1691 79.507 26.7216 78.0461 25.8386C76.5837 24.9546 75.402 23.6655 74.5328 22.0082C73.6677 20.3609 73.2291 18.3998 73.2291 16.18C73.2291 13.9613 73.6671 11.9939 74.5317 10.3324C75.4015 8.66092 76.5837 7.36507 78.0461 6.48053C79.507 5.59756 81.1189 5.14952 82.8356 5.14952C84.5529 5.14952 86.1648 5.59756 87.6257 6.48053C89.0871 7.36454 90.2692 8.66039 91.1401 10.3324C92.0047 11.995 92.4427 13.9624 92.4427 16.18C92.4427 18.3987 92.0041 20.3598 91.139 22.0082C90.2687 23.6666 89.0865 24.9551 87.6257 25.8386C86.1648 26.7216 84.5529 27.1691 82.8356 27.1691ZM109.172 24.8769C108.288 25.6119 107.856 25.8832 106.723 26.4015C105.594 26.9172 103.931 27.1691 102.7 27.1691C100.876 27.1691 99.2032 26.7221 97.7288 25.8396C96.2508 24.9546 95.0743 23.6713 94.231 22.024C93.395 20.3908 92.971 18.4249 92.971 16.18C92.971 13.9598 93.424 11.9903 94.3177 10.3266C95.2165 8.6541 96.4418 7.35877 97.9582 6.47633C99.472 5.59599 101.136 5.14952 102.904 5.14952C105.176 5.14952 107.228 6.00153 109.005 7.6809L109.354 8.01089L107.163 10.8093L106.751 10.4284C106.139 9.86129 105.524 9.42636 104.921 9.13467C104.342 8.85451 103.705 8.71233 103.026 8.71233C101.916 8.71233 100.904 9.02082 100.017 9.63045C99.1212 10.2474 98.4066 11.1257 97.8933 12.2405C97.3712 13.3732 97.1061 14.699 97.1061 16.18C97.1061 18.4354 97.6567 20.2648 98.7429 21.6168C99.8161 22.9557 101.191 23.6068 102.945 23.6068C104.599 23.6068 105.941 23.0522 107.295 21.8083L124.924 5.15267L130 5.15162" fill="#334D6E"/>
<path d="M20.1575 5.14593V27.2237H15.5533V24.4122C14.7795 25.4048 13.8122 26.1692 12.6513 26.7069C11.4909 27.2447 10.2391 27.5133 8.89864 27.5133C6.13828 27.5133 3.96539 26.6933 2.37892 25.0533C0.792974 23.4138 0 20.981 0 17.7561V5.14593H4.83621V17.0531C4.83621 19.0378 5.25501 20.5194 6.09365 21.4973C6.93126 22.4763 8.12487 22.9652 9.67241 22.9652C11.4 22.9652 12.7737 22.3934 13.793 21.2497C14.8117 20.106 15.3208 18.4586 15.3208 16.3086V5.14593H20.1575Z" fill="#379EFF"/>
<path d="M38.3236 21.1875C39.471 19.92 40.0455 18.2522 40.0455 16.1846C40.0455 14.1175 39.471 12.4502 38.3236 11.1822C37.1757 9.91466 35.7122 9.28037 33.9321 9.28037C32.7717 9.28037 31.7271 9.56315 30.7981 10.1277C29.8697 10.6932 29.1343 11.4996 28.5931 12.5462C28.0513 13.5945 27.7804 14.8069 27.7804 16.1846C27.7804 17.5633 28.0513 18.7758 28.5931 19.823C29.1343 20.8707 29.8697 21.677 30.7981 22.2415C31.7271 22.8071 32.7717 23.0893 33.9321 23.0893C35.7122 23.0893 37.1757 22.4556 38.3236 21.1875ZM39.8711 6.30358C41.4576 7.24111 42.7016 8.56372 43.6046 10.2725C44.5076 11.9817 44.9591 13.9523 44.9591 16.1846C44.9591 18.4175 44.5076 20.3953 43.6046 22.1177C42.7016 23.8406 41.4576 25.1706 39.8711 26.1071C38.2852 27.0446 36.486 27.5131 34.4739 27.5131C31.6882 27.5131 29.4831 26.521 27.8577 24.5363V35.2441H23.0215V5.14571H27.6257V8.04013C28.4249 6.99296 29.4115 6.20705 30.5859 5.68346C31.7587 5.15987 33.0551 4.89808 34.4739 4.89808C36.486 4.89808 38.2852 5.36658 39.8711 6.30358Z" fill="#379EFF"/>
</g>
<defs>
<clipPath id="clip0_4088_10633">
<rect width="130" height="35.2444" fill="white"/>
</clipPath>
</defs>
</svg>
