<svg width="101" height="131" viewBox="0 0 101 131" fill="none" xmlns="http://www.w3.org/2000/svg">
<rect y="11.9575" width="84" height="108.616" rx="5" fill="#379EFF"/>
<rect x="12" y="23.9155" width="60" height="89.6829" rx="5" fill="#F4F8FF"/>
<g filter="url(#filter0_d_107_5021)">
<rect x="7" y="18.9331" width="70" height="89.6829" rx="5" fill="#F4F8FF"/>
<g opacity="0.8">
<rect x="15" y="32.8838" width="54" height="6.16007" rx="3.08004" fill="#379EFF"/>
<rect x="15" y="44.8413" width="40" height="6.15824" rx="3.07912" fill="#379EFF"/>
<rect x="15" y="57.5239" width="54" height="6.16007" rx="3.08004" fill="#379EFF"/>
<rect x="15" y="69.8438" width="54" height="6.16007" rx="3.08004" fill="#379EFF"/>
<rect x="15" y="81.7114" width="25" height="6.15824" rx="3.07912" fill="#379EFF"/>
<rect x="15" y="94.4844" width="54" height="6.16007" rx="3.08004" fill="#379EFF"/>
</g>
</g>
<g filter="url(#filter1_d_107_5021)">
<path d="M48.418 9.30046C48.418 12.8164 45.5548 15.6843 42.0013 15.6843C38.4478 15.6843 35.5846 12.8164 35.5846 9.30046C35.5846 5.78448 38.4478 2.91667 42.0013 2.91667C45.5548 2.91667 48.418 5.78448 48.418 9.30046Z" stroke="#4E5D78" stroke-width="5.83333"/>
<rect x="24.2917" y="8.26335" width="35.4167" height="14.3638" rx="4.375" fill="#4E5D78" stroke="#4E5D78" stroke-width="0.583333"/>
</g>
<path d="M43 73.7393H49.4444H55.8889V80.161H49.4444V86.5828H43V73.7393Z" fill="#FF5630"/>
<path d="M100.465 73.7393L100.465 80.161L100.465 86.5828L94.0204 86.5828L94.0204 80.161L87.576 80.161L87.576 73.7393L100.465 73.7393Z" fill="#FF5630"/>
<path d="M100.465 131L94.0204 131L87.576 131L87.576 124.578L94.0204 124.578L94.0204 118.156L100.465 118.156L100.465 131Z" fill="#FF5630"/>
<path d="M43 131L43 124.578L43 118.156L49.4444 118.157L49.4444 124.578L55.8889 124.578L55.8889 131L43 131Z" fill="#FF5630"/>
<rect x="62.332" y="73.7393" width="6.44444" height="6.42175" fill="#FF5630"/>
<rect x="43" y="93.0044" width="6.44444" height="6.42175" fill="#FF5630"/>
<rect x="43" y="105.848" width="6.44444" height="6.42175" fill="#FF5630"/>
<rect x="62.332" y="124.578" width="6.44444" height="6.42175" fill="#FF5630"/>
<rect x="75.2188" y="124.578" width="6.44444" height="6.42175" fill="#FF5630"/>
<rect x="94.5547" y="93.0044" width="6.44444" height="6.42175" fill="#FF5630"/>
<rect x="94.5547" y="105.848" width="6.44444" height="6.42175" fill="#FF5630"/>
<rect x="75.2188" y="73.7393" width="6.44444" height="6.42175" fill="#FF5630"/>
<defs>
<filter id="filter0_d_107_5021" x="3" y="18.9331" width="78" height="97.6831" filterUnits="userSpaceOnUse" color-interpolation-filters="sRGB">
<feFlood flood-opacity="0" result="BackgroundImageFix"/>
<feColorMatrix in="SourceAlpha" type="matrix" values="0 0 0 0 0 0 0 0 0 0 0 0 0 0 0 0 0 0 127 0" result="hardAlpha"/>
<feOffset dy="4"/>
<feGaussianBlur stdDeviation="2"/>
<feComposite in2="hardAlpha" operator="out"/>
<feColorMatrix type="matrix" values="0 0 0 0 0.756863 0 0 0 0 0.780392 0 0 0 0 0.815686 0 0 0 0.6 0"/>
<feBlend mode="normal" in2="BackgroundImageFix" result="effect1_dropShadow_107_5021"/>
<feBlend mode="normal" in="SourceGraphic" in2="effect1_dropShadow_107_5021" result="shape"/>
</filter>
<filter id="filter1_d_107_5021" x="21" y="0" width="42" height="28.9189" filterUnits="userSpaceOnUse" color-interpolation-filters="sRGB">
<feFlood flood-opacity="0" result="BackgroundImageFix"/>
<feColorMatrix in="SourceAlpha" type="matrix" values="0 0 0 0 0 0 0 0 0 0 0 0 0 0 0 0 0 0 127 0" result="hardAlpha"/>
<feOffset dy="3"/>
<feGaussianBlur stdDeviation="1.5"/>
<feComposite in2="hardAlpha" operator="out"/>
<feColorMatrix type="matrix" values="0 0 0 0 0.19599 0 0 0 0 0.231648 0 0 0 0 0.295833 0 0 0 0.2 0"/>
<feBlend mode="normal" in2="BackgroundImageFix" result="effect1_dropShadow_107_5021"/>
<feBlend mode="normal" in="SourceGraphic" in2="effect1_dropShadow_107_5021" result="shape"/>
</filter>
</defs>
</svg>