<svg width="40" height="40" viewBox="0 0 40 40" fill="none" xmlns="http://www.w3.org/2000/svg">
<path d="M20 8.75C20 8.05964 19.4404 7.5 18.75 7.5C18.0596 7.5 17.5 8.05964 17.5 8.75V22.5C17.5 22.9486 17.7404 23.3628 18.1298 23.5853L26.8798 28.5853C27.4792 28.9278 28.2428 28.7196 28.5853 28.1202C28.9278 27.5208 28.7196 26.7572 28.1202 26.4147L20 21.7746V8.75Z" fill="#379EFF"/>
<path d="M20 40C31.0457 40 40 31.0457 40 20C40 8.9543 31.0457 0 20 0C8.9543 0 0 8.9543 0 20C0 31.0457 8.9543 40 20 40ZM37.5 20C37.5 29.665 29.665 37.5 20 37.5C10.335 37.5 2.5 29.665 2.5 20C2.5 10.335 10.335 2.5 20 2.5C29.665 2.5 37.5 10.335 37.5 20Z" fill="#379EFF"/>
</svg>