<svg width="40" height="40" viewBox="0 0 40 40" fill="none" xmlns="http://www.w3.org/2000/svg">
<path d="M1.25 0C1.94036 0 2.5 0.559644 2.5 1.25V38.75C2.5 39.4404 1.94036 40 1.25 40C0.559644 40 0 39.4404 0 38.75V1.25C0 0.559644 0.559644 0 1.25 0Z" fill="#379EFF"/>
<path d="M5 3.75C5 3.05964 5.55964 2.5 6.25 2.5H16.25C16.9404 2.5 17.5 3.05964 17.5 3.75V6.25C17.5 6.94036 16.9404 7.5 16.25 7.5H6.25C5.55964 7.5 5 6.94036 5 6.25V3.75Z" fill="#379EFF"/>
<path d="M10 13.75C10 13.0596 10.5596 12.5 11.25 12.5H28.75C29.4404 12.5 30 13.0596 30 13.75V16.25C30 16.9404 29.4404 17.5 28.75 17.5H11.25C10.5596 17.5 10 16.9404 10 16.25V13.75Z" fill="#379EFF"/>
<path d="M15 23.75C15 23.0596 15.5596 22.5 16.25 22.5H31.25C31.9404 22.5 32.5 23.0596 32.5 23.75V26.25C32.5 26.9404 31.9404 27.5 31.25 27.5H16.25C15.5596 27.5 15 26.9404 15 26.25V23.75Z" fill="#379EFF"/>
<path d="M20 33.75C20 33.0596 20.5596 32.5 21.25 32.5H38.75C39.4404 32.5 40 33.0596 40 33.75V36.25C40 36.9404 39.4404 37.5 38.75 37.5H21.25C20.5596 37.5 20 36.9404 20 36.25V33.75Z" fill="#379EFF"/>
</svg>
