<svg width="40" height="40" viewBox="0 0 40 40" fill="none" xmlns="http://www.w3.org/2000/svg">
<path d="M27.1351 19.6351C27.3698 19.4004 27.5017 19.0821 27.5017 18.7501C27.5017 18.4182 27.3698 18.0998 27.1351 17.8651C26.9004 17.6304 26.5821 17.4985 26.2501 17.4985C25.9182 17.4985 25.5998 17.6304 25.3651 17.8651L18.7501 24.4826L15.8851 21.6151C15.6504 21.3804 15.3321 21.2485 15.0001 21.2485C14.6682 21.2485 14.3498 21.3804 14.1151 21.6151C13.8804 21.8498 13.7485 22.1682 13.7485 22.5001C13.7485 22.8321 13.8804 23.1504 14.1151 23.3851L17.8651 27.1351C17.9812 27.2515 18.1192 27.3439 18.271 27.4069C18.4229 27.4699 18.5857 27.5023 18.7501 27.5023C18.9145 27.5023 19.0773 27.4699 19.2292 27.4069C19.3811 27.3439 19.519 27.2515 19.6351 27.1351L27.1351 19.6351Z" fill="#379EFF"/>
<path d="M35 35V11.25L23.75 0H10C8.67392 0 7.40215 0.526784 6.46447 1.46447C5.52678 2.40215 5 3.67392 5 5V35C5 36.3261 5.52678 37.5979 6.46447 38.5355C7.40215 39.4732 8.67392 40 10 40H30C31.3261 40 32.5979 39.4732 33.5355 38.5355C34.4732 37.5979 35 36.3261 35 35ZM23.75 7.5C23.75 8.49456 24.1451 9.44839 24.8483 10.1517C25.5516 10.8549 26.5054 11.25 27.5 11.25H32.5V35C32.5 35.663 32.2366 36.2989 31.7678 36.7678C31.2989 37.2366 30.663 37.5 30 37.5H10C9.33696 37.5 8.70107 37.2366 8.23223 36.7678C7.76339 36.2989 7.5 35.663 7.5 35V5C7.5 4.33696 7.76339 3.70107 8.23223 3.23223C8.70107 2.76339 9.33696 2.5 10 2.5H23.75V7.5Z" fill="#379EFF"/>
</svg>