<svg width="40" height="40" viewBox="0 0 40 40" fill="none" xmlns="http://www.w3.org/2000/svg">
<path d="M18.75 2.545C15.5099 2.77719 12.3984 3.90661 9.76384 5.80682C7.12923 7.70704 5.07552 10.303 3.83259 13.3042C2.58967 16.3054 2.2066 19.5933 2.72627 22.7998C3.24593 26.0064 4.64782 29.005 6.775 31.46L18.75 19.4825V2.545ZM21.25 2.545V18.75H37.455C37.1538 14.5518 35.3497 10.6027 32.3735 7.62648C29.3973 4.65026 25.4482 2.84623 21.25 2.545ZM37.455 21.25H20.5175L8.5425 33.225C10.9976 35.3515 13.9959 36.7527 17.2021 37.272C20.4083 37.7912 23.6957 37.408 26.6964 36.1652C29.6972 34.9223 32.2928 32.8689 34.1929 30.2347C36.093 27.6006 37.2225 24.4896 37.455 21.25ZM0 20C0 14.6957 2.10714 9.60859 5.85786 5.85786C9.60859 2.10714 14.6957 0 20 0C25.3043 0 30.3914 2.10714 34.1421 5.85786C37.8929 9.60859 40 14.6957 40 20C40 25.3043 37.8929 30.3914 34.1421 34.1421C30.3914 37.8929 25.3043 40 20 40C14.6957 40 9.60859 37.8929 5.85786 34.1421C2.10714 30.3914 0 25.3043 0 20Z" fill="#379EFF"/>
</svg>
