<svg width="40" height="40" viewBox="0 0 40 40" fill="none" xmlns="http://www.w3.org/2000/svg">
<path fill-rule="evenodd" clip-rule="evenodd" d="M0 0H2.5V37.5H40V40H0V0ZM25 8.75C25 8.05964 25.5596 7.5 26.25 7.5H36.25C36.9404 7.5 37.5 8.05964 37.5 8.75V18.75C37.5 19.4404 36.9404 20 36.25 20C35.5596 20 35 19.4404 35 18.75V12.2518L25.9674 23.2915C25.7438 23.5649 25.415 23.7309 25.0623 23.7484C24.7095 23.766 24.3658 23.6336 24.1161 23.3839L17.6505 16.9183L8.51092 29.4852C8.10487 30.0435 7.3231 30.167 6.76479 29.7609C6.20647 29.3549 6.08303 28.5731 6.48908 28.0148L16.4891 14.2648C16.7041 13.9691 17.0378 13.7824 17.4022 13.7538C17.7667 13.7252 18.1254 13.8576 18.3839 14.1161L24.9072 20.6394L33.6122 10H26.25C25.5596 10 25 9.44036 25 8.75Z" fill="#379EFF"/>
</svg>
