<svg width="40" height="40" viewBox="0 0 40 40" fill="none" xmlns="http://www.w3.org/2000/svg">
<path fill-rule="evenodd" clip-rule="evenodd" d="M20 37.5C29.665 37.5 37.5 29.665 37.5 20C37.5 10.335 29.665 2.5 20 2.5C10.335 2.5 2.5 10.335 2.5 20C2.5 29.665 10.335 37.5 20 37.5ZM20 40C31.0457 40 40 31.0457 40 20C40 8.95431 31.0457 0 20 0C8.95431 0 0 8.95431 0 20C0 31.0457 8.95431 40 20 40Z" fill="#379EFF"/>
<path fill-rule="evenodd" clip-rule="evenodd" d="M20 33.75C27.5939 33.75 33.75 27.5939 33.75 20C33.75 12.4061 27.5939 6.25 20 6.25C12.4061 6.25 6.25 12.4061 6.25 20C6.25 27.5939 12.4061 33.75 20 33.75ZM20 35C28.2843 35 35 28.2843 35 20C35 11.7157 28.2843 5 20 5C11.7157 5 5 11.7157 5 20C5 28.2843 11.7157 35 20 35Z" fill="#379EFF"/>
<path d="M16.1466 27.6923V29.6154C16.1466 29.8278 16.3282 30 16.5521 30H18.174C18.398 30 18.5795 29.8278 18.5795 29.6154V27.6923H19.3905V29.6154C19.3905 29.8278 19.572 30 19.7959 30H21.4178C21.6418 30 21.8233 29.8278 21.8233 29.6154V27.6923H21.9602C25.1908 27.6923 27.5 26.1031 27.5 23.3531C27.5 21.0425 25.8672 19.7802 23.9545 19.5999V19.4646C25.529 19.0927 26.6836 17.9656 26.6836 16.0947C26.6836 13.7391 24.8176 12.3077 21.9718 12.3077H21.8233V10.3846C21.8233 10.1722 21.6418 10 21.4178 10H19.7959C19.572 10 19.3905 10.1722 19.3905 10.3846V12.3077H18.4613V10.3846C18.4613 10.1722 18.2798 10 18.0558 10H16.5521C16.3282 10 16.1466 10.1722 16.1466 10.3846V12.3077L12.9055 12.325C12.6815 12.325 12.5 12.4972 12.5 12.7096V14.2308C12.5 14.4422 12.68 14.614 12.9029 14.6154L14.1271 14.608C14.7958 14.6121 15.3357 15.1275 15.3357 15.7619V24.2308C15.3357 24.868 14.7911 25.3846 14.1193 25.3846L12.9055 25.4019C12.6815 25.4019 12.5 25.5741 12.5 25.7865V27.325C12.5 27.5374 12.6815 27.7096 12.9055 27.7096L16.1466 27.6923ZM18.4613 14.5957H21.2487C22.7182 14.5957 23.5813 15.3621 23.5813 16.6131C23.5813 17.9544 22.6483 18.7095 20.5373 18.7095H18.4613V14.5957ZM18.4613 20.8284H21.447C23.2897 20.8284 24.2927 21.7188 24.2927 23.1727C24.2927 24.6379 23.2781 25.4043 20.7939 25.4043H18.4613V20.8284Z" fill="#379EFF"/>
</svg>
